<?xml version="1.0" encoding="UTF-8" standalone="no"?>
<!-- Created with Inkscape (http://www.inkscape.org/) -->

<svg
   xmlns:dc="http://purl.org/dc/elements/1.1/"
   xmlns:cc="http://creativecommons.org/ns#"
   xmlns:rdf="http://www.w3.org/1999/02/22-rdf-syntax-ns#"
   xmlns:svg="http://www.w3.org/2000/svg"
   xmlns="http://www.w3.org/2000/svg"
   xmlns:sodipodi="http://sodipodi.sourceforge.net/DTD/sodipodi-0.dtd"
   xmlns:inkscape="http://www.inkscape.org/namespaces/inkscape"
   id="svg3039"
   version="1.1"
   inkscape:version="0.48.4 r9939"
   width="48"
   height="48"
   sodipodi:docname="mei-chang.svg"
   inkscape:export-filename="/tmp/mei-small.png"
   inkscape:export-xdpi="90"
   inkscape:export-ydpi="90">
  <metadata
     id="metadata3045">
    <rdf:RDF>
      <cc:Work
         rdf:about="">
        <dc:format>image/svg+xml</dc:format>
        <dc:type
           rdf:resource="http://purl.org/dc/dcmitype/StillImage" />
        <dc:title></dc:title>
      </cc:Work>
    </rdf:RDF>
  </metadata>
  <defs
     id="defs3043" />
  <sodipodi:namedview
     pagecolor="#ffffff"
     bordercolor="#666666"
     borderopacity="1"
     objecttolerance="10"
     gridtolerance="10"
     guidetolerance="10"
     inkscape:pageopacity="0"
     inkscape:pageshadow="2"
     inkscape:window-width="1920"
     inkscape:window-height="1000"
     id="namedview3041"
     showgrid="true"
     inkscape:zoom="16"
     inkscape:cx="12.865585"
     inkscape:cy="21.228134"
     inkscape:window-x="0"
     inkscape:window-y="0"
     inkscape:window-maximized="0"
     inkscape:current-layer="layer2"
     showguides="true"
     inkscape:guide-bbox="true">
    <inkscape:grid
       type="xygrid"
       id="grid3085"
       empspacing="5"
       visible="true"
       enabled="true"
       snapvisiblegridlinesonly="true" />
  </sodipodi:namedview>
  <g
     inkscape:groupmode="layer"
     id="layer1"
     inkscape:label="Bitmap"
     style="display:inline"
     transform="translate(0,-1552)" />
  <g
     inkscape:groupmode="layer"
     id="layer2"
     inkscape:label="Vector"
     style="display:inline"
     transform="translate(0,-1552)">
    <path
       style="fill:#ffb84c;fill-opacity:1;stroke:none"
       d="m 16,1589 1,0 0,2 3,0 0,1 1,0 0,-2 -5,0 z"
       id="path3097"
       inkscape:connector-curvature="0" />
    <path
       style="fill:#000000;fill-opacity:1;stroke:none"
       d="m 7,1585 0,1 2,0 c 0,0 0,2 0,2 l 1,0 0,-1 1,0 0,-1 1,0 0,2 1,0 0,-4 -2,0 0,1 c 0,0 1,0 1,0 l 0,-5 -2,0 0,-11 1,0 0,14 2,0 0,1 1,0 0,3 1,0 0,-1 1,0 0,-1 2,0 0,-2 -1,0 0,-2 -2,0 0,-1 -1,0 0,-3 -1,0 0,-5 2,0 0,-1 1,0 0,-1 1,0 0,-1 1,0 0,-1 1,0 0,-1 c 0,0 1,0 1,0 l 0,1 1,0 0,2 1,0 0,1 1,0 0,-1 1,0 0,1 -1,0 0,1 1,0 0,1 1,0 0,1 2,0 0,1 2,0 0,3 -1,0 c 0,0 0,2 0,2 l -1,0 0,-1 2,0 0,1 -1,0 0,2 -1,0 0,1 -1,0 0,1 2,0 0,1 2,0 0,1 1,0 0,-3 1,0 0,4 3,0 0,1 -1,0 0,-2 1,0 c 0,0 0,1 0,1 l 3,0 0,1 -1,0 0,-2 1,0 0,-1 -1,0 0,-1 -1,0 0,-2 -1,0 0,-3 1,0 0,-5 2,0 0,1 -1,0 0,-2 -1,0 0,-1 1,0 0,-2 -1,0 0,-2 -1,0 0,-3 -1,0 0,-4 -1,0 0,-1 -1,0 0,-1 -1,0 0,-1 -2,0 0,-1 -1,0 0,-1 c 0,0 -3,0 -3,0 l 0,-1 -5,0 0,1 -3,0 0,1 -2,0 0,1 -2,0 0,1 -1,0 0,1 -1,0 0,1 -1,0 0,3 -1,0 0,14 -1,0 0,3 -1,0 0,-2 2,0 0,2 1,0 0,3 -1,0 0,1 z"
       id="path3346"
       inkscape:connector-curvature="0" />
    <path
       style="fill:#ffb84c;fill-opacity:1;stroke:none"
       d="m 14,1588 0,1 1,0 0,-1 z"
       id="path3099"
       inkscape:connector-curvature="0" />
    <path
       style="fill:#ffb84c;fill-opacity:1;stroke:none"
       d="m 25,1590 2,0 0,-1 2,0 0,-2 1,0 0,1 -2,0 0,3 -3,0 z"
       id="path3101"
       inkscape:connector-curvature="0" />
    <path
       style="fill:#ffdb4f;fill-opacity:1;stroke:none"
       d="m 21,1591 1,0 0,1 -1,0 z"
       id="path3103"
       inkscape:connector-curvature="0" />
    <path
       style="fill:#ffdb4f;fill-opacity:1;stroke:none"
       d="m 23,1591 2,0 0,1 -2,0 z"
       id="path3105"
       inkscape:connector-curvature="0" />
    <path
       style="fill:#ffdb4f;fill-opacity:1;stroke:none"
       d="m 28,1589 1,0 0,1 -1,0 z"
       id="path3107"
       inkscape:connector-curvature="0" />
    <path
       style="fill:#ffdb4f;fill-opacity:1;stroke:none"
       d="m 28,1586 1,0 0,1 -1,0 z"
       id="path3109"
       inkscape:connector-curvature="0" />
    <path
       style="fill:#ffdb4f;fill-opacity:1;stroke:none"
       d="m 15,1587 0,2 1,0 0,-2 z"
       id="path3111"
       inkscape:connector-curvature="0" />
    <path
       style="fill:#84993f;fill-opacity:1;stroke:none"
       d="m 15,1587 -2,0 0,3 -2,0 0,6 1,0 0,-1 1,0 0,-3 2,0 0,1 -1,0 0,3 -1,0 0,4 3,0 0,-1 -1,0 0,-2 -1,0 0,1 -2,0 0,2 -3,0 0,-1 1,0 0,-8 2,0 0,-3 3,0 z"
       id="path3117"
       inkscape:connector-curvature="0" />
    <path
       style="fill:#84993f;fill-opacity:1;stroke:none"
       d="m 16,1588 2,0 0,1 4,0 0,1 2,0 0,-1 2,0 0,-1 3,0 0,-1 -1,0 0,2 -1,0 0,1 -2,0 0,1 -4,0 0,-1 -4,0 0,-1 -1,0 z"
       id="path3119"
       inkscape:connector-curvature="0" />
    <path
       style="fill:#84993f;fill-opacity:1;stroke:none"
       d="m 18,1599 0,1 1,0 0,-1 z"
       id="path3121"
       inkscape:connector-curvature="0" />
    <path
       style="fill:#84993f;fill-opacity:1;stroke:none"
       d="m 20,1596 0,3 1,0 0,-3 z"
       id="path3123"
       inkscape:connector-curvature="0" />
    <path
       style="fill:#84993f;fill-opacity:1;stroke:none"
       d="m 25,1600 0,-1 2,0 0,-1 1,0 0,-1 1,0 0,-2 -1,0 0,-2 2,0 0,7 z"
       id="path3125"
       inkscape:connector-curvature="0" />
    <path
       style="fill:#84993f;fill-opacity:1;stroke:none"
       d="m 31,1594 0,6 5,0 0,-4 -2,0 0,-9 -2,0 0,-1 -1,0 0,2 2,0 0,2 2,0 0,7 -3,0 0,-3 z"
       id="path3127"
       inkscape:connector-curvature="0" />
    <path
       style="fill:#67674b;fill-opacity:1;stroke:none"
       d="m 14,1593 0,5 -2,0 0,2 1,0 0,-4 2,0 0,-3 z"
       id="path3129"
       inkscape:connector-curvature="0" />
    <path
       style="fill:#67674b;fill-opacity:1;stroke:none"
       d="m 19,1598 0,2 2,0 0,-1 -1,0 0,-1 z"
       id="path3131"
       inkscape:connector-curvature="0" />
    <path
       style="fill:#67674b;fill-opacity:1;stroke:none"
       d="m 15,1586 0,1 1,0 c 0,0 0,1 0,1 l 1,0 0,-2 1,0 0,-1 -2,0 0,1 z"
       id="path3135"
       inkscape:connector-curvature="0" />
    <path
       style="fill:#67674b;fill-opacity:1;stroke:none"
       d="m 26,1584 0,1 4,0 0,1 1,0 0,1 -2,0 0,-1 -1,0 0,-2 z"
       id="path3137"
       inkscape:connector-curvature="0" />
    <path
       style="fill:#a8ae37;fill-opacity:1;stroke:none"
       d="m 13,1588 0,2 -1,0 0,1 -1,0 0,5 1,0 0,-1 1,0 0,-3 2,0 0,4 -1,0 0,1 1,0 0,2 1,0 0,1 2,0 0,-1 1,0 0,-1 1,0 0,-2 1,0 0,4 4,0 0,-1 2,0 0,-1 1,0 0,-1 1,0 0,-2 -1,0 0,-2 1,0 0,-1 2,0 0,2 1,0 0,3 3,0 0,-1 -1,0 0,-6 -1,0 0,-2 -2,0 0,-1 -1,0 0,1 -1,0 0,2 -1,0 0,1 -3,0 c 0,0 0,1 0,1 l -2,0 0,-1 -1,0 0,1 -2,0 0,-1 -3,0 0,-1 -1,0 0,-1 -2,0 0,-1 z"
       id="path3141"
       inkscape:connector-curvature="0" />
    <path
       style="fill:#67674b;fill-opacity:1;stroke:none"
       d="m 29,1592 0,1 1,0 0,7 1,0 0,-8 z"
       id="path3143"
       inkscape:connector-curvature="0" />
    <path
       style="fill:#d2c4cb;fill-opacity:1;stroke:none"
       d="m 7,1578 0,4 2,0 0,3 -3,0 0,1 3,0 0,2 2,0 0,3 -2,0 0,9 -1,0 0,-1 2,0 0,-9 2,0 0,-4 -1,0 0,1 -1,0 0,2 -2,0 0,-2 -1,0 0,-3 3,0 0,-3 -1,0 0,-2 -1,0 0,2 -2,0 0,-2 2,0 0,-15 2,0 0,-4 2,0 0,-2 3,0 0,-2 1,0 0,-1 12,0 0,2 3,0 0,2 2,0 0,2 2,0 0,7 1,0 0,-3 -2,0 0,-5 -2,0 0,-2 -3,0 0,-2 -4,0 0,-2 -5,0 0,2 -3,0 0,1 -4,0 0,2 -2,0 0,2 -2,0 0,17 -2,0"
       id="path3145"
       inkscape:connector-curvature="0"
       sodipodi:nodetypes="cccccccccccccccccccccccccccccccccccccccccccccccccccccccccccc" />
    <path
       style="fill:#d2c4cb;fill-opacity:1;stroke:none"
       d="m 36,1569 1,0 0,6 2,0 0,-1 -1,0 0,2 -1,0 0,3 -2,0 0,3 2,0 0,3 2,0 0,1 -2,0 0,1 2,0 0,1 -5,0 0,2 2,0 0,10 1,0 0,-4 -2,0 0,-9 2,0 0,2 1,0 0,-5 -2,0 0,-10 2,0 0,-1 -2,0 0,-1 2,0 0,-2 -2,0 z"
       id="path3245"
       inkscape:connector-curvature="0" />
    <path
       style="fill:#ffebd2;fill-opacity:1;stroke:none"
       d="m 14,1576 0,3 1,0 0,1 1,0 0,1 2,0 0,1 7,0 0,-1 2,0 0,-2 -1,0 0,-2 -1,0 0,-1 -1,0 0,-1 -1,0 0,1 -3,0 0,1 0,1 2,0 0,-1 -4,0 0,1 -2,0 0,-1 -1,0 0,-1 z"
       id="path3249"
       inkscape:connector-curvature="0"
       sodipodi:nodetypes="cccccccccccccccccccccccccccccccc" />
    <path
       style="fill:#ffebd2;fill-opacity:1;stroke:none"
       d="m 18,1587 0,1 1,0 0,1 3,0 0,1 2,0 0,-1 2,0 0,-1 1,0 0,-1 -1,0 0,-1 -1,0 0,-3 -1,0 0,1 -2,0 0,1 -1,0 0,1 -1,0 0,1 z"
       id="path3247"
       inkscape:connector-curvature="0" />
    <path
       style="fill:#663d53;fill-opacity:1;stroke:none"
       d="m 20,1580 0,1 1,0 0,-1 z"
       id="path3251"
       inkscape:connector-curvature="0" />
    <path
       style="fill:#663d53;fill-opacity:1;stroke:none"
       d="m 22,1579 0,2 2,0 0,-1 -1,0 0,-1 z"
       id="path3253"
       inkscape:connector-curvature="0" />
    <path
       style="fill:#663d53;fill-opacity:1;stroke:none"
       d="m 16,1572 0,1 1,0 0,2 2,0 0,-1 1,0 0,-1 -1,0 0,-1 z"
       id="path3255"
       inkscape:connector-curvature="0" />
    <path
       style="fill:#663d53;fill-opacity:1;stroke:none"
       d="m 16,1570 0,1 2,0 0,-1 z"
       id="path3257"
       inkscape:connector-curvature="0" />
    <path
       style="fill:#663d53;fill-opacity:1;stroke:none"
       d="m 12,1570 3,0 0,-2 2,0 0,-3 4,0 0,-1 2,0 0,-1 3,0 0,-1 5,0 0,1 1,0 0,2 1,0 0,-3 -1,0 0,-1 -3,0 0,-1 -3,0 0,1 2,0 0,-2 -1,0 0,-1 1,0 0,-1 -3,0 0,-1 -1,0 0,1 -2,0 0,1 2,0 0,1 2,0 0,1 -1,0 0,1 -2,0 0,1 -3,0 0,-1 -4,0 0,-3 -1,0 0,1 5,0 0,-1 1,0 0,-2 -1,0 0,1 -1,0 0,1 -1,0 0,2 -3,0 0,-1 -2,0 0,3 -1,0 0,3 -1,0 0,-1 2,0 0,-1 1,0 0,-1 3,0 0,1 3,0 0,1 -1,0 0,2 -3,0 0,3 -2,0 0,2 -2,0 z"
       id="path3259"
       inkscape:connector-curvature="0" />
    <path
       style="fill:#663d53;fill-opacity:1;stroke:none"
       d="m 10,1569 0,11 2,0 0,5 -1,0 0,-1 3,0 0,3 -1,0 0,-4 -2,0 0,-14 z"
       id="path3261"
       inkscape:connector-curvature="0"
       sodipodi:nodetypes="ccccccccccccc" />
    <path
       style="fill:#663d53;fill-opacity:1;stroke:none"
       d="m 22,1565 0,1 1,0 0,-1 z"
       id="path3282"
       inkscape:connector-curvature="0" />
    <path
       style="fill:#663d53;fill-opacity:1;stroke:none"
       d="m 23,1567 0,1 2,0 0,2 3,0 0,2 1,0 0,1 2,0 0,-1 -1,0 0,-4 -2,0 0,-2 -1,0 0,1 2,0 0,3 2,0 0,1 -5,0 0,-2 -2,0 0,-2 z"
       id="path3284"
       inkscape:connector-curvature="0" />
    <path
       style="fill:#663d53;fill-opacity:1;stroke:none"
       d="m 26,1574 0,1 1,0 0,-1 z"
       id="path3286"
       inkscape:connector-curvature="0"
       sodipodi:nodetypes="ccccc" />
    <path
       style="fill:#663d53;fill-opacity:1;stroke:none"
       d="m 33,1572 0,1 2,0 0,3 -1,0 0,-4 z"
       id="path3290"
       inkscape:connector-curvature="0" />
    <path
       style="fill:#663d53;fill-opacity:1;stroke:none"
       d="m 34,1571 0,-2 1,0 0,1 1,0 0,1 z"
       id="path3292"
       inkscape:connector-curvature="0" />
    <path
       style="fill:#663d53;fill-opacity:1;stroke:none"
       d="m 33,1578 0,6 1,0 0,-6 z"
       id="path3294"
       inkscape:connector-curvature="0" />
    <path
       style="fill:#663d53;fill-opacity:1;stroke:none"
       d="m 31,1583 0,3 1,0 0,-3 z"
       id="path3296"
       inkscape:connector-curvature="0" />
    <path
       style="fill:#663d53;fill-opacity:1;stroke:none"
       d="m 34,1584 0,1 1,0 0,-1 z"
       id="path3298"
       inkscape:connector-curvature="0"
       sodipodi:nodetypes="ccccc" />
    <path
       style="fill:#663d53;fill-opacity:1;stroke:none"
       d="m 34,1586 0,1 1,0 0,-1 z"
       id="path3300"
       inkscape:connector-curvature="0" />
    <path
       style="fill:#f49bb3;fill-opacity:1;stroke:none"
       d="m 20,1579 0,1 1,0 0,1 1,0 0,-2 z"
       id="path3302"
       inkscape:connector-curvature="0" />
    <path
       style="fill:#f49bb3;fill-opacity:1;stroke:none"
       d="m 15,1576 0,1 3,0 0,1 -2,0 0,-2 z"
       id="path3304"
       inkscape:connector-curvature="0" />
    <path
       style="fill:#f49bb3;fill-opacity:1;stroke:none"
       d="m 26,1577 3,0 0,-1 -1,0 0,2 -2,0 z"
       id="path3306"
       inkscape:connector-curvature="0" />
    <path
       style="fill:#f49bb3;fill-opacity:1;stroke:none"
       d="m 31,1575 0,1 1,0 0,-1 z"
       id="path3308"
       inkscape:connector-curvature="0" />
    <path
       style="fill:#d2c4cb;fill-opacity:1;stroke:none"
       d="m 16,1558 0,3 2,0 0,-1 -3,0 0,-1 3,0 0,-1 z"
       id="path3310"
       inkscape:connector-curvature="0" />
    <path
       style="fill:#d2c4cb;fill-opacity:1;stroke:none"
       d="m 27,1558 0,1 1,0 0,1 2,0 0,1 -1,0 0,-3 z"
       id="path3312"
       inkscape:connector-curvature="0" />
    <path
       style="fill:#d2c4cb;fill-opacity:1;stroke:none"
       d="m 18,1568 0,1 3,0 0,-1 -1,0 0,-1 -1,0 0,1 z"
       id="path3314"
       inkscape:connector-curvature="0" />
    <path
       style="fill:#d2c4cb;fill-opacity:1;stroke:none"
       d="m 21,1570 0,1 3,0 0,-1 -1,0 0,4 2,0 0,2 3,0 0,-1 -4,0 0,-3 -2,0 0,-2 z"
       id="path3318"
       inkscape:connector-curvature="0" />
    <path
       style="fill:#d2c4cb;fill-opacity:1;stroke:none"
       d="m 19,1572 0,1 1,0 0,-1 z"
       id="path3320"
       inkscape:connector-curvature="0" />
    <path
       style="fill:#d2c4cb;fill-opacity:1;stroke:none"
       d="m 19,1574 0,2 -3,0 0,-2 -1,0 0,1 c 0,0 5,0 5,0 l 0,-1 z"
       id="path3322"
       inkscape:connector-curvature="0" />
    <path
       style="fill:#d2c4cb;fill-opacity:1;stroke:none"
       d="m 19,1576 0,1 1,0 0,-2 3,0 0,1 z"
       id="path3324"
       inkscape:connector-curvature="0" />
    <path
       style="fill:#d2c4cb;fill-opacity:1;stroke:none"
       d="m 28,1577 0,5 -9,0 0,4 -1,0 0,3 1,0 0,-1 -2,0 0,-1 c 0,0 3,0 3,0 l 0,-1 1,0 0,-1 1,0 0,-1 -2,0 0,-1 5,0 0,-2 2,0 0,-1 2,0 0,-1 -3,0 0,-1 3,0 0,-1 z"
       id="path3326"
       inkscape:connector-curvature="0" />
    <path
       style="fill:#d2c4cb;fill-opacity:1;stroke:none"
       d="m 30,1575 0,1 1,0 0,-1 z"
       id="path3328"
       inkscape:connector-curvature="0" />
    <path
       style="fill:#d2c4cb;fill-opacity:1;stroke:none"
       d="m 14,1579 0,1 2,0 0,1 -1,0 0,-2 z"
       id="path3330"
       inkscape:connector-curvature="0" />
    <path
       style="fill:#d2c4cb;fill-opacity:1;stroke:none"
       d="m 13,1576 0,1 1,0 0,-1 z"
       id="path3332"
       inkscape:connector-curvature="0"
       sodipodi:nodetypes="ccccc" />
    <path
       style="fill:#d2c4cb;fill-opacity:1;stroke:none"
       d="m 17,1581 0,1 1,0 0,-1 z"
       id="path3334"
       inkscape:connector-curvature="0" />
    <path
       style="fill:#d2c4cb;fill-opacity:1;stroke:none"
       d="m 25,1585 0,1 2,0 0,2 1,0 0,-1 -2,0 0,-2 z"
       id="path3336"
       inkscape:connector-curvature="0" />
    <path
       style="fill:#905860;fill-opacity:1;stroke:none"
       d="m 20,1577 0,1 2,0 0,-1 z"
       id="path3338"
       inkscape:connector-curvature="0" />
    <path
       style="fill:#905860;fill-opacity:1;stroke:none"
       d="m 17,1582 0,1 1,0 0,4 -1,0 0,-1 2,0 0,-4 z"
       id="path3340"
       inkscape:connector-curvature="0"
       sodipodi:nodetypes="ccccccccc" />
    <path
       style="fill:#905860;fill-opacity:1;stroke:none"
       d="m 20,1583 0,1 4,0 0,-1 z"
       id="path3342"
       inkscape:connector-curvature="0" />
    <path
       style="fill:#905860;fill-opacity:1;stroke:none"
       d="m 25,1582 0,3 3,0 0,2 -1,0 0,-1 -1,0 0,-3 1,0 0,-1 z"
       id="path3344"
       inkscape:connector-curvature="0"
       sodipodi:nodetypes="ccccccccccc" />
    <path
       style="fill:#905860;fill-opacity:1;stroke:none"
       d="m 18,1570 0,1 1,0 0,-2 1,0 0,1 z"
       id="path3348"
       inkscape:connector-curvature="0"
       sodipodi:nodetypes="ccccccc" />
    <path
       style="fill:#ffebd2;fill-opacity:1;stroke:none"
       d="m 13,1572 0,2 2,0 0,-3 4,0 0,-2 -2,0 0,1 3,0 0,-1 1,0 0,2 1,0 0,1 1,0 0,1 -2,0 0,1 -1,0 0,-2 z"
       id="path3350"
       inkscape:connector-curvature="0" />
    <path
       style="fill:#67674b;fill-opacity:1;stroke:none"
       d="m 15,1572 0,3 1,0 0,2 3,0 0,-2 5,0 0,-2 1,0 0,1 -2,0 0,-1 -2,0 0,1 -1,0 0,2 -7,0 0,-2 3,0 0,-2 z"
       id="path3352"
       inkscape:connector-curvature="0" />
    <path
       style="fill:#67674b;fill-opacity:1;stroke:none"
       d="m 24,1575 0,1 5,0 0,-1 -1,0 0,2 -3,0 0,-2 z"
       id="path3354"
       inkscape:connector-curvature="0" />
    <path
       style="fill:#ffffff;fill-opacity:1;stroke:none"
       d="m 16,1573 c 0,0 0,2 0,2 l 1,0 0,-2 z"
       id="path3356"
       inkscape:connector-curvature="0" />
    <path
       style="fill:#ffffff;fill-opacity:1;stroke:none"
       d="m 25,1574 c 0,0 0,1 0,1 0,0 1,0 1,0 l 0,-1 z"
       id="path3358"
       inkscape:connector-curvature="0" />
  </g>
</svg>
